# 3ds Max Wavefront OBJ Exporter v0.97b - (c)2007 guruware
# File Created: 26.06.2018 18:07:33

mtllib aaaaaa.mtl

#
# object 1
#
v -13.6477 -64.1516 -4.09261
v -15.8333 -61.7311 -4.09261
v -12.9234 -60.6462 -4.09261
v -9.48643 -65.319 -4.09261
v -10.9819 -60.6462 -4.09261
v -6.37553 -65.319 -4.09261
v -3.78503 -60.2015 -4.09261
v -3.63972 -64.1633 -4.09261
v 3.27557 -60.2759 -4.09261
v 2.90817 -64.1633 -4.09261
v 10.6642 -60.6462 -4.09261
v 5.34818 -65.319 -4.09261
v 12.2521 -61.0479 -4.09261
v 8.79717 -65.319 -4.09261
v 15.0132 -62.2651 -4.09261
v 12.7702 -64.6101 -4.09261
v -18.2324 -57.0773 -3.43181
v -15.7063 -55.9734 -3.43181
v -13.8711 -55.9734 -3.43181
v -7.27843 -58.6603 -4.09261
v 6.76767 -58.8089 -4.09261
v 13.606 -55.9734 -3.43181
v 14.9326 -56.0752 -3.43181
v 17.5645 -57.8348 -4.09261
v -19.964 -52.6423 -3.43181
v -17.1177 -52.7996 -3.43181
v -15.3429 -52.7996 -3.43181
v -10.2425 -56.1566 -3.43181
v 9.21777 -56.0073 -3.43181
v 15.0265 -52.7996 -3.43181
v 16.3942 -53.0737 -3.43181
v 19.5975 -52.2068 -3.43181
v -20.5803 -47.979 -4.09261
v -17.8434 -50.7426 -3.43181
v -16.2177 -50.529 -3.43181
v -12.5333 -52.2411 -3.43181
v 11.8944 -52.2354 -3.43181
v 16.0788 -48.5905 -3.43181
v 17.4055 -49.8034 -3.43181
v 20.2175 -47.534 -4.09261
v -23.2524 -45.1071 -2.91001
v -17.3134 -36.6078 -0.341112
v -12.0332 -44.4374 -2.91001
v -13.372 -47.8737 -4.09261
v 13.6828 -48.0251 -4.09261
v 11.232 -45.3303 -2.91001
v 17.0221 -36.6078 -0.341112
v 22.972 -45.2559 -2.91001
v -13.6477 -64.1516 4.74679
v -9.48643 -65.319 4.74679
v -12.9234 -60.6462 4.74679
v -15.8333 -61.7311 4.74679
v -6.37553 -65.319 4.74679
v -10.9819 -60.6462 4.74679
v -3.63972 -64.1633 4.74679
v -3.78503 -60.2015 4.74679
v 2.90817 -64.1633 4.74679
v 3.27557 -60.2759 4.74679
v 5.34818 -65.319 4.74679
v 10.6642 -60.6462 4.74679
v 8.79717 -65.319 4.74679
v 12.2521 -61.0479 4.74679
v 12.7702 -64.6101 4.74679
v 15.0132 -62.2651 4.74679
v -15.7063 -55.9734 4.20299
v -18.2324 -57.0773 4.20299
v -13.8711 -55.9734 4.20299
v -7.27843 -58.6603 4.74679
v 6.76767 -58.8089 4.74679
v 13.606 -55.9734 4.20299
v 14.9326 -56.0753 4.20299
v 17.5645 -57.8348 4.74679
v -17.1177 -52.7996 4.20289
v -19.964 -52.6423 4.20289
v -15.3429 -52.7996 4.20289
v -10.2425 -56.1566 4.20299
v 15.0265 -52.7996 4.20289
v 9.21777 -56.0073 4.20299
v 16.3942 -53.0737 4.20289
v 19.5975 -52.2068 4.20289
v -17.8434 -50.7426 4.20299
v -20.5803 -47.979 4.74679
v -16.2177 -50.529 4.20299
v -12.5333 -52.2411 4.20289
v 16.0788 -48.5905 4.20299
v 11.8944 -52.2354 4.20289
v 17.4055 -49.8034 4.20299
v 20.2175 -47.534 4.74679
v -17.3134 -36.6078 1.06029
v -23.2524 -45.1071 3.56409
v -12.0332 -44.4374 3.56409
v -13.372 -47.8737 4.74679
v 11.232 -45.3303 3.56409
v 13.6828 -48.0251 4.74679
v 17.0221 -36.6078 1.06029
v 22.972 -45.2559 3.56409
v -2.03732 -1.22156 -3.00591
v 1.30567 -1.22156 -3.00591
v 1.30567 -1.22156 3.66069
v -2.03732 -1.22156 3.66069
v 2.58498 -17.3215 -3.00591
v -3.31663 -17.3215 -3.00591
v 2.58498 -17.3215 3.66059
v -3.31663 -17.3215 3.66059
v 3.90667 -15.3405 -3.00591
v -4.63823 -15.3405 -3.00591
v 3.90667 -15.3405 3.66059
v -4.63823 -15.3405 3.66059
v 3.90667 -4.41376 3.66069
v 3.90667 -4.41376 -3.00591
v -4.63823 -4.41376 -3.00591
v -4.63823 -4.41376 3.66069
v -7.27843 -58.6603 4.83249
v 6.76767 -58.8089 4.83249
v -10.2425 -56.1566 4.27699
v 9.21777 -56.0073 4.27699
v -12.5333 -52.2411 4.27699
v 11.8944 -52.2354 4.27699
v -13.372 -47.8737 4.83249
v 13.6828 -48.0251 4.83249
v -2.61413 -13.0947 2.04009
v 1.88258 -13.0947 2.04009
v -2.61413 -6.65956 2.04009
v 1.88258 -6.65956 2.04009
v 1.88258 -13.0947 -1.38531
v -2.61413 -13.0947 -1.38531
v 1.88258 -6.65956 -1.38531
v -2.61413 -6.65956 -1.38531
v -2.61323 -13.0947 2.05059
v -2.61323 -6.65956 2.05059
v 1.87318 -13.0947 2.04599
v 1.87318 -6.65956 2.04599
v -2.61413 -6.67316 2.06859
v 1.88258 -6.67316 2.06859
v 1.88258 -13.0735 2.01109
v -2.61413 -13.0735 2.01109
vn -0 -0 -1
vn -0.0264 0.0674 -0.9974
vn -0.0095 0.0725 -0.9973
vn -0.0027 0.0671 -0.9977
vn -0.0045 0.0011 -1
vn 0.0041 0.001 -1
vn 0.0076 0.0689 -0.9976
vn -0.0016 0.0503 -0.9987
vn -0.025 0.0571 -0.9981
vn -0.0129 0.0542 -0.9984
vn -0.0021 0.071 -0.9975
vn 0.0136 0.2702 -0.9627
vn -0.3686 -0.8356 -0.4072
vn 0.3808 -0.9065 -0.1825
vn -0.0018 0.231 -0.9729
vn 0.0058 0.0672 -0.9977
vn -0.0525 0.1027 -0.9933
vn -0.1055 0.1473 -0.9834
vn 0.0378 -0.0422 -0.9984
vn 0.0098 0.1944 -0.9809
vn -0.0013 0.1643 -0.9864
vn -0.0107 -0.0117 -0.9999
vn 0.0012 -0.0674 -0.9977
vn 0.2309 0.1727 -0.9575
vn 0.0664 0.031 -0.9973
vn -0.049 0.027 -0.9984
vn -0.0208 -0.0448 -0.9988
vn 0.029 -0.0333 -0.999
vn 0.1446 0.136 -0.9801
vn -0.1328 0.1328 -0.9822
vn -0.626 0.7233 -0.2916
vn -0.0634 0.329 -0.9422
vn -0.0095 0.246 -0.9692
vn -0.2073 0.2494 -0.946
vn -0.4757 0.3045 -0.8252
vn 0.3172 0.2881 -0.9035
vn 0.1102 0.3148 -0.9427
vn 0.0005 0.2347 -0.9721
vn -0.1775 0.324 -0.9293
vn 0 -0 1
vn -0.0078 0.0598 0.9982
vn -0.0218 0.0556 0.9982
vn -0.0121 0.0414 0.9991
vn 0.0034 0.0009 1
vn 0.0062 0.0568 0.9984
vn -0.0013 0.0414 0.9991
vn -0.0107 0.0447 0.9989
vn -0.0206 0.0471 0.9987
vn -0.004 0.0602 0.9982
vn -0.0098 0.0388 0.9992
vn 0.3672 -0.8683 0.3335
vn 0.0418 0.027 0.9988
vn -0.0435 0.085 0.9954
vn -0.0874 0.1221 0.9887
vn 0.0312 -0.0348 0.9989
vn 0.0082 0.1616 0.9868
vn 0.004 0.0038 1
vn -0.1655 0.2998 0.9395
vn -0.0088 -0.0096 0.9999
vn 0.001 -0.0557 0.9984
vn 0.0584 0.0395 0.9975
vn 0.2092 0.1788 0.9614
vn -0.0453 0.0391 0.9982
vn -0.0172 -0.037 0.9992
vn 0.1336 0.1414 0.9809
vn 0.024 -0.0275 0.9993
vn -0.1083 0.1255 0.9862
vn -0.6216 0.727 0.2916
vn -0.0096 0.2474 0.9689
vn -0.0678 0.3253 0.9432
vn -0.1883 0.2514 0.9494
vn -0.4493 0.3099 0.8379
vn 0.0862 0.3134 0.9457
vn 0.2768 0.2924 0.9154
vn 0.0006 0.2393 0.9709
vn -0.1561 0.3222 0.9337
vn -0.2701 -0.9628 -0
vn -0.1363 -0.9907 -0
vn 0.1985 -0.9801 -0
vn 0.3891 -0.9212 -0
vn 0 -1 -0
vn -0.4281 -0.9037 -0
vn -0.2194 -0.9756 -0
vn 0.0882 -0.9961 -0
vn 0.1757 -0.9844 -0
vn 0.7226 -0.6912 -0
vn 0.8004 -0.5995 -0
vn 0.9057 -0.4239 -0
vn 0.9059 -0.4234 -0
vn 0.9717 -0.2361 -0
vn 0.9717 -0.2362 -0
vn 0.8872 -0.4613 -0
vn 0.8887 -0.4584 -0
vn 0.6373 -0.7706 -0
vn 0.8238 0.5668 0
vn -0.0086 1 0
vn -0.0085 1 0
vn -0.9781 -0.2081 -0
vn -0.9784 -0.2065 -0
vn -0.7398 -0.6728 -0
vn 1 0 -0
vn 0.9318 -0.363 -0
vn 0.9999 0.0165 0
vn 0.9998 0.0178 0
vn 0.0173 0.9998 0
vn 0.0172 0.9999 0
vn -0.8197 0.5728 0
vn -0.7321 -0.6812 -0
vn -0.9121 -0.4099 -0
vn -0.9132 -0.4074 -0
vn -0.9697 -0.2442 -0
vn -0.9695 -0.245 -0
vn -0.9106 -0.4133 -0
vn -0.9107 -0.413 -0
vn -0.8193 -0.5734 -0
vn -0.8199 -0.5726 -0
vn -0.7422 -0.6702 -0
vn 0 -0.0232 0.9997
vn -1 -0.0069 -0
vn 0 -0.0232 -0.9997
vn 1 -0.0069 -0
vn -0.8319 0.555 0
vn 0.8319 0.555 0
vn -1 0 -0
vn -0.7752 -0.6317 -0
vn 0.7752 -0.6317 -0
vn 0.2846 0.8421 -0.4582
vn 0.0106 0.9999 0
vn -0.3343 0.8166 -0.4705
vn 0.6453 0.764 0
vn -0.7527 0.6583 0
vn 0.8631 0.505 0
vn -0.8155 0.5787 0
vn 0.9821 0.1886 -0
vn -0.9204 0.391 0
vn -0.9859 -0.1674 -0
vn 0.9959 -0.0908 -0
vn 0 -0.5852 -0.8109
vn -0.625 0 -0.7806
vn 0 0.5852 -0.8109
vn 0.625 0 -0.7806
vn 0 -0.5852 0.8109
vn 0.625 -0 0.7806
vn 0 0.5852 0.8109
vn -0.625 -0 0.7806
vn -0.4891 -0.7752 0.3998
vn -0.4893 0.7756 0.3988
vn -1 -0 0.0003
vn 0.4888 -0.7749 0.4008
vn 1 -0 0.0027
vn 0.489 0.7752 0.3998
vn 0 1 0.0039
vn 0 -1 0.0062
vt 1 0
vt 1 3.9152
vt -4.4863 3.9152
vt -4.4863 0
vt -9.9726 3.9152
vt -9.9726 0
vt -15.4588 3.9152
vt -15.4588 0
vt -20.9451 3.9152
vt -20.9451 0
vt -26.4314 3.9152
vt -26.4314 0
vt -31.9177 3.9152
vt -31.9177 0
vt -37.404 3.9152
vt -37.404 0
vt 1 7.8304
vt -4.4863 7.8304
vt -9.9726 7.8304
vt -15.4588 7.8304
vt -20.9451 7.8304
vt -26.4314 7.8304
vt -31.9177 7.8304
vt -37.404 7.8304
vt 1 11.7456
vt -4.4863 11.7456
vt -9.9726 11.7456
vt -15.4588 11.7456
vt -20.9451 11.7456
vt -26.4314 11.7456
vt -31.9177 11.7456
vt -37.404 11.7456
vt 1 15.6608
vt -4.4863 15.6608
vt -9.9726 15.6608
vt -15.4588 15.6608
vt -20.9451 15.6608
vt -26.4314 15.6608
vt -31.9177 15.6608
vt -37.404 15.6608
vt 1 19.5761
vt -4.4863 19.5761
vt -9.9726 19.5761
vt -15.4588 19.5761
vt -20.9451 19.5761
vt -26.4314 19.5761
vt -31.9177 19.5761
vt -37.404 19.5761
vt 0 0
vt 5.4863 0
vt 5.4863 3.9152
vt 0 3.9152
vt 10.9726 0
vt 10.9726 3.9152
vt 16.4588 0
vt 16.4588 3.9152
vt 21.9451 0
vt 21.9451 3.9152
vt 27.4314 0
vt 27.4314 3.9152
vt 32.9177 0
vt 32.9177 3.9152
vt 38.404 0
vt 38.404 3.9152
vt 5.4863 7.8304
vt 0 7.8304
vt 10.9726 7.8304
vt 16.4588 7.8304
vt 21.9451 7.8304
vt 27.4314 7.8304
vt 32.9177 7.8304
vt 38.404 7.8304
vt 5.4863 11.7456
vt 0 11.7456
vt 10.9726 11.7456
vt 16.4588 11.7456
vt 27.4314 11.7456
vt 21.9451 11.7456
vt 32.9177 11.7456
vt 38.404 11.7456
vt 5.4863 15.6608
vt 0 15.6608
vt 10.9726 15.6608
vt 16.4588 15.6608
vt 27.4314 15.6608
vt 21.9451 15.6608
vt 32.9177 15.6608
vt 38.404 15.6608
vt 5.4863 19.5761
vt 0 19.5761
vt 10.9726 19.5761
vt 16.4588 19.5761
vt 27.4314 19.5761
vt 21.9451 19.5761
vt 32.9177 19.5761
vt 38.404 19.5761
vt 5.4863 31.2968
vt 0 31.2968
vt 10.9726 31.2968
vt 16.4588 31.2968
vt 21.9451 31.2968
vt 27.4314 31.2968
vt 32.9177 31.2968
vt 38.404 31.2968
vt 3.9152 0
vt 3.9152 31.2968
vt 7.8304 0
vt 7.8304 31.2968
vt 11.7456 0
vt 11.7456 31.2968
vt 15.6608 0
vt 15.6608 31.2968
vt 19.5761 0
vt 19.5761 31.2968
usemtl material_1
f 1/1/1 2/2/2 3/3/3 4/4/1 
f 4/4/1 3/3/3 5/5/4 6/6/1 
f 6/6/1 5/5/4 7/7/5 8/8/1 
f 8/8/1 7/7/5 9/9/6 10/10/1 
f 10/10/1 9/9/6 11/11/7 12/12/1 
f 12/12/1 11/11/7 13/13/8 14/14/1 
f 14/14/1 13/13/8 15/15/1 16/16/1 
f 2/2/2 17/17/9 18/18/10 3/3/3 
f 3/3/3 18/18/10 19/19/11 5/5/4 
f 5/5/4 19/19/11 20/20/12 20/20/13 7/7/5 
f 7/7/5 20/20/13 21/21/14 9/9/6 
f 9/9/6 21/21/14 21/21/15 22/22/16 11/11/7 
f 11/11/7 22/22/16 23/23/17 13/13/8 
f 13/13/8 23/23/17 24/24/18 15/15/1 
f 17/17/9 25/25/19 26/26/1 18/18/10 
f 18/18/10 26/26/1 27/27/1 19/19/11 
f 19/19/11 27/27/1 28/28/20 20/20/12 
f 29/29/21 30/30/1 22/22/16 21/21/15 
f 22/22/16 30/30/1 31/31/22 23/23/17 
f 23/23/17 31/31/22 32/32/23 24/24/18 
f 25/25/19 33/33/24 34/34/25 26/26/1 
f 26/26/1 34/34/25 35/35/26 27/27/1 
f 27/27/1 35/35/26 36/36/27 28/28/20 
f 37/37/28 38/38/29 30/30/1 29/29/21 
f 30/30/1 38/38/29 39/39/30 31/31/22 
f 31/31/22 39/39/30 40/40/31 32/32/23 
f 33/33/24 41/41/32 42/42/33 34/34/25 
f 34/34/25 42/42/33 43/43/34 35/35/26 
f 35/35/26 43/43/34 44/44/35 36/36/27 
f 45/45/36 46/46/37 38/38/29 37/37/28 
f 38/38/29 46/46/37 47/47/38 39/39/30 
f 39/39/30 47/47/38 48/48/39 40/40/31 
f 49/49/40 50/50/40 51/51/41 52/52/42 
f 50/50/40 53/53/40 54/54/43 51/51/41 
f 53/53/40 55/55/40 56/56/40 54/54/43 
f 55/55/40 57/57/40 58/58/44 56/56/40 
f 57/57/40 59/59/40 60/60/45 58/58/44 
f 59/59/40 61/61/40 62/62/46 60/60/45 
f 61/61/40 63/63/40 64/64/40 62/62/46 
f 52/52/42 51/51/41 65/65/47 66/66/48 
f 51/51/41 54/54/43 67/67/49 65/65/47 
f 54/54/43 56/56/40 68/68/50 67/67/49 
f 56/56/40 58/58/44 69/69/51 68/68/50 
f 58/58/44 60/60/45 70/70/52 69/69/51 
f 60/60/45 62/62/46 71/71/53 70/70/52 
f 62/62/46 64/64/40 72/72/54 71/71/53 
f 66/66/48 65/65/47 73/73/40 74/74/55 
f 65/65/47 67/67/49 75/75/40 73/73/40 
f 67/67/49 68/68/50 76/76/56 75/75/40 
f 69/69/51 70/70/52 77/77/57 78/78/58 
f 70/70/52 71/71/53 79/79/59 77/77/57 
f 71/71/53 72/72/54 80/80/60 79/79/59 
f 74/74/55 73/73/40 81/81/61 82/82/62 
f 73/73/40 75/75/40 83/83/63 81/81/61 
f 75/75/40 76/76/56 84/84/64 83/83/63 
f 78/78/58 77/77/57 85/85/65 86/86/66 
f 77/77/57 79/79/59 87/87/67 85/85/65 
f 79/79/59 80/80/60 88/88/68 87/87/67 
f 82/82/62 81/81/61 89/89/69 90/90/70 
f 81/81/61 83/83/63 91/91/71 89/89/69 
f 83/83/63 84/84/64 92/92/72 91/91/71 
f 86/86/66 85/85/65 93/93/73 94/94/74 
f 85/85/65 87/87/67 95/95/75 93/93/73 
f 87/87/67 88/88/68 96/96/76 95/95/75 
f 1/49/77 4/50/78 50/97/78 49/98/77 
f 4/50/78 6/53/79 53/99/79 50/97/78 
f 6/53/79 8/55/80 55/100/80 53/99/79 
f 97/55/81 98/57/81 99/101/81 100/100/81 
f 10/57/82 12/59/83 59/102/83 57/101/82 
f 12/59/83 14/61/84 61/103/84 59/102/83 
f 14/61/84 16/63/85 63/104/85 61/103/84 
f 16/49/86 15/105/87 64/106/87 63/98/86 
f 15/105/87 24/107/88 72/108/89 64/106/87 
f 24/107/88 32/109/90 80/110/91 72/108/89 
f 32/109/90 40/111/92 88/112/93 80/110/91 
f 40/111/92 48/113/94 96/114/94 88/112/93 
f 48/49/95 47/50/96 95/97/97 96/98/95 
f 47/50/96 46/53/98 93/99/99 95/97/97 
f 46/53/98 45/55/100 45/55/101 94/100/100 93/99/99 
f 44/57/102 43/59/103 91/102/104 92/101/102 44/57/101 
f 43/59/103 42/61/105 89/103/106 91/102/104 
f 42/61/105 41/63/107 90/104/107 89/103/106 
f 41/49/108 33/105/109 82/106/110 90/98/108 
f 33/105/109 25/107/111 74/108/112 82/106/110 
f 25/107/111 17/109/113 66/110/114 74/108/112 
f 17/109/113 2/111/115 52/112/116 66/110/114 
f 2/111/115 1/113/117 49/114/117 52/112/116 
f 8/55/118 10/57/118 101/57/118 102/55/118 
f 10/57/119 57/101/119 103/101/119 101/57/119 
f 57/101/120 55/100/120 104/100/120 103/101/120 
f 55/100/121 8/55/121 102/55/121 104/100/121 
f 102/55/40 101/57/40 105/57/40 106/55/40 
f 101/57/122 103/101/122 107/101/122 105/57/122 
f 103/101/1 104/100/1 108/100/1 107/101/1 
f 104/100/123 102/55/123 106/55/123 108/100/123 
f 105/57/124 107/101/124 109/101/124 110/57/124 
f 108/100/101 106/55/101 111/55/101 112/100/101 
f 111/55/40 110/57/40 98/57/40 97/55/40 
f 110/57/125 109/101/125 99/101/125 98/57/125 
f 109/101/1 112/100/1 100/100/1 99/101/1 
f 112/100/126 111/55/126 97/55/126 100/100/126 
f 20/20/127 113/20/127 20/20/127 
f 20/20/128 113/20/128 114/21/128 21/21/128 
f 21/21/129 114/21/129 21/21/129 
f 28/28/130 115/28/130 113/20/130 20/20/130 
f 21/21/131 114/21/131 116/29/131 29/29/131 
f 36/36/132 117/36/132 115/28/132 28/28/132 
f 29/29/133 116/29/133 118/37/133 37/37/133 
f 44/44/134 119/44/134 117/36/134 36/36/134 
f 37/37/135 118/37/135 120/45/135 45/45/135 
f 45/55/136 120/55/136 45/55/136 
f 44/57/137 119/57/137 44/57/137 
f 107/101/138 108/100/138 121/100/138 122/101/138 
f 108/100/139 112/100/139 123/100/139 121/100/139 
f 112/100/140 109/101/140 124/101/140 123/100/140 
f 109/101/141 107/101/141 122/101/141 124/101/141 
f 106/55/142 105/57/142 125/57/142 125/57/142 126/55/142 126/55/142 
f 105/57/143 110/57/143 127/57/143 125/57/143 
f 110/57/144 111/55/144 128/55/144 128/55/144 127/57/144 127/57/144 
f 111/55/145 106/55/145 126/55/145 128/55/145 
f 126/55/146 129/55/146 126/55/146 126/55/146 
f 128/55/147 130/55/147 128/55/147 128/55/147 
f 126/55/148 129/55/148 130/55/148 128/55/148 
f 125/57/149 131/57/149 125/57/149 125/57/149 
f 127/57/150 132/57/150 131/57/150 125/57/150 
f 127/57/151 132/57/151 127/57/151 127/57/151 
f 128/55/152 133/55/152 134/57/152 127/57/152 
f 128/55/147 133/55/147 128/55/147 
f 127/57/151 134/57/151 127/57/151 
f 125/57/153 135/57/153 136/55/153 126/55/153 
f 126/55/146 136/55/146 126/55/146 
f 125/57/149 135/57/149 125/57/149 
s off
